<svg xmlns="http://www.w3.org/2000/svg" viewBox="0 0 708.42 189"><defs><style>.cls-1{font-size:49.74px;fill:#231f20;font-family:Tahoma;}.cls-2{letter-spacing:-0.06em;}.cls-3{fill:#223f99;}.cls-4{fill:#ec1c24;}.cls-5{fill:#ffdd15;}</style></defs><g id="Layer_2" data-name="Layer 2"><text class="cls-1" transform="translate(210.82 83.82)">VERFS<tspan class="cls-2" x="142.1" y="0">TA</tspan><tspan x="195.39" y="0">T DESIGN</tspan><tspan x="0" y="59.69">MUSEUM &amp; ARCHIVE</tspan></text><path class="cls-3" d="M126.3,37c-.44,0-.87,0-1.31,0V148.68c.44,0,.87,0,1.31,0,34.36,0,62.22-25,62.22-55.86S156.7,37,126.3,37Zm28.27,73.65a16.12,16.12,0,1,1,16.12-16.11A16.11,16.11,0,0,1,154.57,110.64Z"/><polygon class="cls-4" points="70.47 146.08 24.92 37.19 24.96 37.1 115.7 36.95 70.47 146.08"/><polyline class="cls-5" points="107.58 149.61 108.17 91.6 84.67 149.38"/><polyline class="cls-5" points="33.61 149.61 33.01 91.6 56.52 149.38"/></g></svg>