<svg id="Layer_1" data-name="Layer 1" xmlns="http://www.w3.org/2000/svg" viewBox="0 0 216 216"><defs><style>.cls-1,.cls-2{fill:#231f20;}.cls-2{font-size:11px;font-family:AvenirNextCondensed-Regular, Avenir Next Condensed;}.cls-3{letter-spacing:-0.01em;}.cls-4{letter-spacing:-0.02em;}.cls-5{letter-spacing:-0.02em;}.cls-6{fill:#fff;}</style></defs><path class="cls-1" d="M98.33,112.78c0-12.36-12.75-22.39-24.93-22.39h-.53v44.76h.53C87.17,135.17,98.33,125.14,98.33,112.78Z"/><text class="cls-2" transform="translate(108.17 111.87)">VERF<tspan class="cls-3" x="19.21" y="0">S</tspan><tspan class="cls-4" x="23.91" y="0">TA</tspan><tspan class="cls-5" x="32.38" y="0">T</tspan><tspan x="35.88" y="0" xml:space="preserve"> DESIGN</tspan><tspan x="0" y="13.2">MUSEUM &amp;</tspan><tspan class="cls-4" x="44.93" y="13.2"> </tspan><tspan x="46.77" y="13.2">ARCHIVE</tspan></text><polygon class="cls-6" points="84.37 103.48 77.62 119.61 77.63 119.62 91.06 119.64 84.37 103.48"/><polygon class="cls-1" points="52.49 133.75 34.42 90.55 34.44 90.52 70.43 90.46 52.49 133.75"/><polyline class="cls-1" points="67.21 135.15 67.45 112.14 58.12 135.06"/><polyline class="cls-1" points="37.87 135.15 37.63 112.14 46.95 135.06"/><rect class="cls-1" x="83.52" y="105.69" width="2.98" height="15.98" transform="translate(-28.67 198.69) rotate(-90)"/></svg>